<?xml version="1.0" encoding="UTF-8" standalone="no"?><svg xmlns="http://www.w3.org/2000/svg" xmlns:xlink="http://www.w3.org/1999/xlink" contentScriptType="application/ecmascript" contentStyleType="text/css" height="616px" preserveAspectRatio="none" style="width:897px;height:616px;" version="1.1" viewBox="0 0 897 616" width="897px" zoomAndPan="magnify"><defs><filter height="300%" id="f1akschkb5chgi" width="300%" x="-1" y="-1"><feGaussianBlur result="blurOut" stdDeviation="2.0"/><feColorMatrix in="blurOut" result="blurOut2" type="matrix" values="0 0 0 0 0 0 0 0 0 0 0 0 0 0 0 0 0 0 .4 0"/><feOffset dx="4.0" dy="4.0" in="blurOut2" result="blurOut3"/><feBlend in="SourceGraphic" in2="blurOut3" mode="normal"/></filter></defs><g><text fill="#000000" font-family="sans-serif" font-size="18" lengthAdjust="spacingAndGlyphs" textLength="199" x="352.5" y="16.708">Classes - Csv Importer</text><!--class Source--><rect fill="#FEFECE" filter="url(#f1akschkb5chgi)" height="86.4141" id="Source" style="stroke: #A80036; stroke-width: 1.5;" width="198" x="94.5" y="35.4531"/><ellipse cx="167.25" cy="51.4531" fill="#B4A7E5" rx="11" ry="11" style="stroke: #A80036; stroke-width: 1.0;"/><path d="M168.2031,48.2344 L168.2031,54.75 L169.9219,54.75 C170.375,54.75 170.5156,54.7813 170.6875,54.9063 C170.9219,55.0781 171.0313,55.3281 171.0313,55.6094 C171.0313,56.1719 170.6719,56.4531 169.9219,56.4531 L164.7813,56.4531 C164.375,56.4531 164.1719,56.4063 164.0156,56.2813 C163.7969,56.125 163.6563,55.8594 163.6563,55.6094 C163.6563,55.3125 163.8125,55.0313 164.0625,54.875 C164.2188,54.7656 164.3438,54.75 164.7813,54.75 L166.5,54.75 L166.5,48.2344 L164.7813,48.2344 C164.3594,48.2344 164.1719,48.2031 164.0156,48.0938 C163.7969,47.9219 163.6563,47.6719 163.6563,47.3906 C163.6563,47.1094 163.8125,46.8125 164.0625,46.6563 C164.2188,46.5625 164.3438,46.5469 164.7813,46.5469 L169.9219,46.5469 C170.375,46.5469 170.5156,46.5781 170.6875,46.6875 C170.9219,46.8594 171.0313,47.125 171.0313,47.3906 C171.0313,47.6875 170.8906,47.9688 170.625,48.125 C170.5,48.2031 170.3125,48.2344 169.9219,48.2344 Z "/><text fill="#000000" font-family="sans-serif" font-size="12" font-style="italic" lengthAdjust="spacingAndGlyphs" textLength="44" x="187.75" y="55.6074">Source</text><line style="stroke: #A80036; stroke-width: 1.5;" x1="95.5" x2="291.5" y1="67.4531" y2="67.4531"/><text fill="#000000" font-family="sans-serif" font-size="11" lengthAdjust="spacingAndGlyphs" textLength="69" x="100.5" y="81.6636">Field[] fields</text><line style="stroke: #A80036; stroke-width: 1.5;" x1="95.5" x2="291.5" y1="88.2578" y2="88.2578"/><text fill="#000000" font-family="sans-serif" font-size="11" lengthAdjust="spacingAndGlyphs" textLength="186" x="100.5" y="102.4683">Field getFieldByPosition(position)</text><text fill="#000000" font-family="sans-serif" font-size="11" lengthAdjust="spacingAndGlyphs" textLength="161" x="100.5" y="115.2729">Field getFieldByName(name)</text><!--class Target--><rect fill="#FEFECE" filter="url(#f1akschkb5chgi)" height="99.2188" id="Target" style="stroke: #A80036; stroke-width: 1.5;" width="423" x="463" y="28.9531"/><ellipse cx="649.75" cy="44.9531" fill="#B4A7E5" rx="11" ry="11" style="stroke: #A80036; stroke-width: 1.0;"/><path d="M650.7031,41.7344 L650.7031,48.25 L652.4219,48.25 C652.875,48.25 653.0156,48.2813 653.1875,48.4063 C653.4219,48.5781 653.5313,48.8281 653.5313,49.1094 C653.5313,49.6719 653.1719,49.9531 652.4219,49.9531 L647.2813,49.9531 C646.875,49.9531 646.6719,49.9063 646.5156,49.7813 C646.2969,49.625 646.1563,49.3594 646.1563,49.1094 C646.1563,48.8125 646.3125,48.5313 646.5625,48.375 C646.7188,48.2656 646.8438,48.25 647.2813,48.25 L649,48.25 L649,41.7344 L647.2813,41.7344 C646.8594,41.7344 646.6719,41.7031 646.5156,41.5938 C646.2969,41.4219 646.1563,41.1719 646.1563,40.8906 C646.1563,40.6094 646.3125,40.3125 646.5625,40.1563 C646.7188,40.0625 646.8438,40.0469 647.2813,40.0469 L652.4219,40.0469 C652.875,40.0469 653.0156,40.0781 653.1875,40.1875 C653.4219,40.3594 653.5313,40.625 653.5313,40.8906 C653.5313,41.1875 653.3906,41.4688 653.125,41.625 C653,41.7031 652.8125,41.7344 652.4219,41.7344 Z "/><text fill="#000000" font-family="sans-serif" font-size="12" font-style="italic" lengthAdjust="spacingAndGlyphs" textLength="41" x="670.25" y="49.1074">Target</text><line style="stroke: #A80036; stroke-width: 1.5;" x1="464" x2="885" y1="60.9531" y2="60.9531"/><text fill="#000000" font-family="sans-serif" font-size="11" lengthAdjust="spacingAndGlyphs" textLength="69" x="469" y="75.1636">Field[] fields</text><line style="stroke: #A80036; stroke-width: 1.5;" x1="464" x2="885" y1="81.7578" y2="81.7578"/><text fill="#000000" font-family="sans-serif" font-size="11" lengthAdjust="spacingAndGlyphs" textLength="277" x="469" y="95.9683">Target addFieldAtPosition(Field field, int position)</text><text fill="#000000" font-family="sans-serif" font-size="11" lengthAdjust="spacingAndGlyphs" textLength="411" x="469" y="108.7729">Target addFieldAtPositionWithName(Field field, int position, String name)</text><text fill="#000000" font-family="sans-serif" font-size="11" lengthAdjust="spacingAndGlyphs" textLength="354" x="469" y="121.5776">Target addFieldNextPositionWithName(Field field, String name)</text><!--class Field--><rect fill="#FEFECE" filter="url(#f1akschkb5chgi)" height="112.0234" id="Field" style="stroke: #A80036; stroke-width: 1.5;" width="310" x="280.5" y="187.9531"/><ellipse cx="416.75" cy="203.9531" fill="#B4A7E5" rx="11" ry="11" style="stroke: #A80036; stroke-width: 1.0;"/><path d="M417.7031,200.7344 L417.7031,207.25 L419.4219,207.25 C419.875,207.25 420.0156,207.2813 420.1875,207.4063 C420.4219,207.5781 420.5313,207.8281 420.5313,208.1094 C420.5313,208.6719 420.1719,208.9531 419.4219,208.9531 L414.2813,208.9531 C413.875,208.9531 413.6719,208.9063 413.5156,208.7813 C413.2969,208.625 413.1563,208.3594 413.1563,208.1094 C413.1563,207.8125 413.3125,207.5313 413.5625,207.375 C413.7188,207.2656 413.8438,207.25 414.2813,207.25 L416,207.25 L416,200.7344 L414.2813,200.7344 C413.8594,200.7344 413.6719,200.7031 413.5156,200.5938 C413.2969,200.4219 413.1563,200.1719 413.1563,199.8906 C413.1563,199.6094 413.3125,199.3125 413.5625,199.1563 C413.7188,199.0625 413.8438,199.0469 414.2813,199.0469 L419.4219,199.0469 C419.875,199.0469 420.0156,199.0781 420.1875,199.1875 C420.4219,199.3594 420.5313,199.625 420.5313,199.8906 C420.5313,200.1875 420.3906,200.4688 420.125,200.625 C420,200.7031 419.8125,200.7344 419.4219,200.7344 Z "/><text fill="#000000" font-family="sans-serif" font-size="12" font-style="italic" lengthAdjust="spacingAndGlyphs" textLength="29" x="437.25" y="208.1074">Field</text><line style="stroke: #A80036; stroke-width: 1.5;" x1="281.5" x2="589.5" y1="219.9531" y2="219.9531"/><text fill="#000000" font-family="sans-serif" font-size="11" lengthAdjust="spacingAndGlyphs" textLength="70" x="286.5" y="234.1636">String name</text><text fill="#000000" font-family="sans-serif" font-size="11" lengthAdjust="spacingAndGlyphs" textLength="89" x="286.5" y="246.9683">Integer position</text><text fill="#000000" font-family="sans-serif" font-size="11" lengthAdjust="spacingAndGlyphs" textLength="83" x="286.5" y="259.7729">Source source</text><line style="stroke: #A80036; stroke-width: 1.5;" x1="281.5" x2="589.5" y1="266.3672" y2="266.3672"/><text fill="#000000" font-family="sans-serif" font-size="11" lengthAdjust="spacingAndGlyphs" textLength="298" x="286.5" y="280.5776">Field transformField(transformation Transformation)</text><text fill="#000000" font-family="sans-serif" font-size="11" lengthAdjust="spacingAndGlyphs" textLength="145" x="286.5" y="293.3823">Strinng getCurrentValue()</text><!--class Transformation--><rect fill="#FEFECE" filter="url(#f1akschkb5chgi)" height="86.4141" id="Transformation" style="stroke: #A80036; stroke-width: 1.5;" width="256" x="307.5" y="359.9531"/><ellipse cx="384.25" cy="375.9531" fill="#B4A7E5" rx="11" ry="11" style="stroke: #A80036; stroke-width: 1.0;"/><path d="M385.2031,372.7344 L385.2031,379.25 L386.9219,379.25 C387.375,379.25 387.5156,379.2813 387.6875,379.4063 C387.9219,379.5781 388.0313,379.8281 388.0313,380.1094 C388.0313,380.6719 387.6719,380.9531 386.9219,380.9531 L381.7813,380.9531 C381.375,380.9531 381.1719,380.9063 381.0156,380.7813 C380.7969,380.625 380.6563,380.3594 380.6563,380.1094 C380.6563,379.8125 380.8125,379.5313 381.0625,379.375 C381.2188,379.2656 381.3438,379.25 381.7813,379.25 L383.5,379.25 L383.5,372.7344 L381.7813,372.7344 C381.3594,372.7344 381.1719,372.7031 381.0156,372.5938 C380.7969,372.4219 380.6563,372.1719 380.6563,371.8906 C380.6563,371.6094 380.8125,371.3125 381.0625,371.1563 C381.2188,371.0625 381.3438,371.0469 381.7813,371.0469 L386.9219,371.0469 C387.375,371.0469 387.5156,371.0781 387.6875,371.1875 C387.9219,371.3594 388.0313,371.625 388.0313,371.8906 C388.0313,372.1875 387.8906,372.4688 387.625,372.625 C387.5,372.7031 387.3125,372.7344 386.9219,372.7344 Z "/><text fill="#000000" font-family="sans-serif" font-size="12" font-style="italic" lengthAdjust="spacingAndGlyphs" textLength="94" x="404.75" y="380.1074">Transformation</text><line style="stroke: #A80036; stroke-width: 1.5;" x1="308.5" x2="562.5" y1="391.9531" y2="391.9531"/><text fill="#000000" font-family="sans-serif" font-size="11" lengthAdjust="spacingAndGlyphs" textLength="141" x="313.5" y="406.1636">Transformation previous</text><line style="stroke: #A80036; stroke-width: 1.5;" x1="308.5" x2="562.5" y1="412.7578" y2="412.7578"/><text fill="#000000" font-family="sans-serif" font-size="11" lengthAdjust="spacingAndGlyphs" textLength="171" x="313.5" y="426.9683">String transform(String value)</text><text fill="#000000" font-family="sans-serif" font-size="11" lengthAdjust="spacingAndGlyphs" textLength="244" x="313.5" y="439.7729">Transformation then(Transformation after)</text><!--class DateTransformation--><rect fill="#FEFECE" filter="url(#f1akschkb5chgi)" height="73.6094" id="DateTransformation" style="stroke: #A80036; stroke-width: 1.5;" width="157" x="250" y="518.4531"/><ellipse cx="265" cy="534.4531" fill="#ADD1B2" rx="11" ry="11" style="stroke: #A80036; stroke-width: 1.0;"/><path d="M267.3438,530.125 L267.5156,530.2031 C267.7344,529.8906 267.9375,529.7969 268.2344,529.7969 C268.5313,529.7969 268.8125,529.9375 268.9688,530.2031 C269.0625,530.3594 269.0781,530.4844 269.0781,530.9219 L269.0781,532.3438 C269.0781,532.7656 269.0469,532.9531 268.9375,533.1094 C268.7656,533.3281 268.5,533.4688 268.2344,533.4688 C268.0156,533.4688 267.7813,533.3594 267.6406,533.2188 C267.5,533.0938 267.4688,532.9688 267.4063,532.5625 C267.3125,532.1563 267.1406,531.9375 266.6563,531.6563 C266.1875,531.4063 265.5781,531.25 265,531.25 C263.2656,531.25 262.0156,532.5625 262.0156,534.3438 L262.0156,535.4375 C262.0156,537.1406 263.3125,538.2344 265.3594,538.2344 C266.125,538.2344 266.8125,538.1094 267.2344,537.8438 C267.4219,537.75 267.4219,537.75 267.875,537.2656 C268.0625,537.0781 268.2656,537 268.4844,537 C268.9531,537 269.3438,537.3906 269.3438,537.8438 C269.3438,538.2344 269.0156,538.6875 268.4375,539.0938 C267.6875,539.6406 266.5313,539.9375 265.3125,539.9375 C262.4219,539.9375 260.3125,538.0469 260.3125,535.4688 L260.3125,534.3438 C260.3125,531.625 262.3125,529.5469 264.9375,529.5469 C265.8125,529.5469 266.4063,529.6875 267.3438,530.125 Z "/><text fill="#000000" font-family="sans-serif" font-size="12" lengthAdjust="spacingAndGlyphs" textLength="125" x="279" y="538.6074">DateTransformation</text><line style="stroke: #A80036; stroke-width: 1.5;" x1="251" x2="406" y1="550.4531" y2="550.4531"/><text fill="#000000" font-family="sans-serif" font-size="11" lengthAdjust="spacingAndGlyphs" textLength="132" x="256" y="564.6636">String inputDateFormat</text><text fill="#000000" font-family="sans-serif" font-size="11" lengthAdjust="spacingAndGlyphs" textLength="140" x="256" y="577.4683">String outputDateFormat</text><line style="stroke: #A80036; stroke-width: 1.5;" x1="251" x2="406" y1="584.0625" y2="584.0625"/><!--class ValueRangeTransformation--><rect fill="#FEFECE" filter="url(#f1akschkb5chgi)" height="99.2188" id="ValueRangeTransformation" style="stroke: #A80036; stroke-width: 1.5;" width="202" x="442.5" y="505.9531"/><ellipse cx="457.5" cy="521.9531" fill="#ADD1B2" rx="11" ry="11" style="stroke: #A80036; stroke-width: 1.0;"/><path d="M459.8438,517.625 L460.0156,517.7031 C460.2344,517.3906 460.4375,517.2969 460.7344,517.2969 C461.0313,517.2969 461.3125,517.4375 461.4688,517.7031 C461.5625,517.8594 461.5781,517.9844 461.5781,518.4219 L461.5781,519.8438 C461.5781,520.2656 461.5469,520.4531 461.4375,520.6094 C461.2656,520.8281 461,520.9688 460.7344,520.9688 C460.5156,520.9688 460.2813,520.8594 460.1406,520.7188 C460,520.5938 459.9688,520.4688 459.9063,520.0625 C459.8125,519.6563 459.6406,519.4375 459.1563,519.1563 C458.6875,518.9063 458.0781,518.75 457.5,518.75 C455.7656,518.75 454.5156,520.0625 454.5156,521.8438 L454.5156,522.9375 C454.5156,524.6406 455.8125,525.7344 457.8594,525.7344 C458.625,525.7344 459.3125,525.6094 459.7344,525.3438 C459.9219,525.25 459.9219,525.25 460.375,524.7656 C460.5625,524.5781 460.7656,524.5 460.9844,524.5 C461.4531,524.5 461.8438,524.8906 461.8438,525.3438 C461.8438,525.7344 461.5156,526.1875 460.9375,526.5938 C460.1875,527.1406 459.0313,527.4375 457.8125,527.4375 C454.9219,527.4375 452.8125,525.5469 452.8125,522.9688 L452.8125,521.8438 C452.8125,519.125 454.8125,517.0469 457.4375,517.0469 C458.3125,517.0469 458.9063,517.1875 459.8438,517.625 Z "/><text fill="#000000" font-family="sans-serif" font-size="12" lengthAdjust="spacingAndGlyphs" textLength="170" x="471.5" y="526.1074">ValueRangeTransformation</text><line style="stroke: #A80036; stroke-width: 1.5;" x1="443.5" x2="643.5" y1="537.9531" y2="537.9531"/><text fill="#000000" font-family="sans-serif" font-size="11" lengthAdjust="spacingAndGlyphs" textLength="139" x="448.5" y="552.1636">String decimalSeparator</text><text fill="#000000" font-family="sans-serif" font-size="11" lengthAdjust="spacingAndGlyphs" textLength="148" x="448.5" y="564.9683">String thousandSeparator</text><text fill="#000000" font-family="sans-serif" font-size="11" lengthAdjust="spacingAndGlyphs" textLength="101" x="448.5" y="577.7729">Number minValue</text><text fill="#000000" font-family="sans-serif" font-size="11" lengthAdjust="spacingAndGlyphs" textLength="104" x="448.5" y="590.5776">Number maxValue</text><line style="stroke: #A80036; stroke-width: 1.5;" x1="443.5" x2="643.5" y1="597.1719" y2="597.1719"/><!--class CsvTarget--><rect fill="#FEFECE" filter="url(#f1akschkb5chgi)" height="60.8047" id="CsvTarget" style="stroke: #A80036; stroke-width: 1.5;" width="233" x="626" y="213.4531"/><ellipse cx="707.25" cy="229.4531" fill="#ADD1B2" rx="11" ry="11" style="stroke: #A80036; stroke-width: 1.0;"/><path d="M709.5938,225.125 L709.7656,225.2031 C709.9844,224.8906 710.1875,224.7969 710.4844,224.7969 C710.7813,224.7969 711.0625,224.9375 711.2188,225.2031 C711.3125,225.3594 711.3281,225.4844 711.3281,225.9219 L711.3281,227.3438 C711.3281,227.7656 711.2969,227.9531 711.1875,228.1094 C711.0156,228.3281 710.75,228.4688 710.4844,228.4688 C710.2656,228.4688 710.0313,228.3594 709.8906,228.2188 C709.75,228.0938 709.7188,227.9688 709.6563,227.5625 C709.5625,227.1563 709.3906,226.9375 708.9063,226.6563 C708.4375,226.4063 707.8281,226.25 707.25,226.25 C705.5156,226.25 704.2656,227.5625 704.2656,229.3438 L704.2656,230.4375 C704.2656,232.1406 705.5625,233.2344 707.6094,233.2344 C708.375,233.2344 709.0625,233.1094 709.4844,232.8438 C709.6719,232.75 709.6719,232.75 710.125,232.2656 C710.3125,232.0781 710.5156,232 710.7344,232 C711.2031,232 711.5938,232.3906 711.5938,232.8438 C711.5938,233.2344 711.2656,233.6875 710.6875,234.0938 C709.9375,234.6406 708.7813,234.9375 707.5625,234.9375 C704.6719,234.9375 702.5625,233.0469 702.5625,230.4688 L702.5625,229.3438 C702.5625,226.625 704.5625,224.5469 707.1875,224.5469 C708.0625,224.5469 708.6563,224.6875 709.5938,225.125 Z "/><text fill="#000000" font-family="sans-serif" font-size="12" lengthAdjust="spacingAndGlyphs" textLength="62" x="727.75" y="233.6074">CsvTarget</text><line style="stroke: #A80036; stroke-width: 1.5;" x1="627" x2="858" y1="245.4531" y2="245.4531"/><line style="stroke: #A80036; stroke-width: 1.5;" x1="627" x2="858" y1="253.4531" y2="253.4531"/><text fill="#000000" font-family="sans-serif" font-size="11" lengthAdjust="spacingAndGlyphs" textLength="221" x="632" y="267.6636">CsvTarget(CsvTargetSettings settings)</text><!--class CsvSource--><rect fill="#FEFECE" filter="url(#f1akschkb5chgi)" height="73.6094" id="CsvSource" style="stroke: #A80036; stroke-width: 1.5;" width="239" x="6" y="206.9531"/><ellipse cx="88.75" cy="222.9531" fill="#ADD1B2" rx="11" ry="11" style="stroke: #A80036; stroke-width: 1.0;"/><path d="M91.0938,218.625 L91.2656,218.7031 C91.4844,218.3906 91.6875,218.2969 91.9844,218.2969 C92.2813,218.2969 92.5625,218.4375 92.7188,218.7031 C92.8125,218.8594 92.8281,218.9844 92.8281,219.4219 L92.8281,220.8438 C92.8281,221.2656 92.7969,221.4531 92.6875,221.6094 C92.5156,221.8281 92.25,221.9688 91.9844,221.9688 C91.7656,221.9688 91.5313,221.8594 91.3906,221.7188 C91.25,221.5938 91.2188,221.4688 91.1563,221.0625 C91.0625,220.6563 90.8906,220.4375 90.4063,220.1563 C89.9375,219.9063 89.3281,219.75 88.75,219.75 C87.0156,219.75 85.7656,221.0625 85.7656,222.8438 L85.7656,223.9375 C85.7656,225.6406 87.0625,226.7344 89.1094,226.7344 C89.875,226.7344 90.5625,226.6094 90.9844,226.3438 C91.1719,226.25 91.1719,226.25 91.625,225.7656 C91.8125,225.5781 92.0156,225.5 92.2344,225.5 C92.7031,225.5 93.0938,225.8906 93.0938,226.3438 C93.0938,226.7344 92.7656,227.1875 92.1875,227.5938 C91.4375,228.1406 90.2813,228.4375 89.0625,228.4375 C86.1719,228.4375 84.0625,226.5469 84.0625,223.9688 L84.0625,222.8438 C84.0625,220.125 86.0625,218.0469 88.6875,218.0469 C89.5625,218.0469 90.1563,218.1875 91.0938,218.625 Z "/><text fill="#000000" font-family="sans-serif" font-size="12" lengthAdjust="spacingAndGlyphs" textLength="65" x="109.25" y="227.1074">CsvSource</text><line style="stroke: #A80036; stroke-width: 1.5;" x1="7" x2="244" y1="238.9531" y2="238.9531"/><line style="stroke: #A80036; stroke-width: 1.5;" x1="7" x2="244" y1="246.9531" y2="246.9531"/><text fill="#000000" font-family="sans-serif" font-size="11" lengthAdjust="spacingAndGlyphs" textLength="227" x="12" y="261.1636">CsvSource(CsvSourceSettings settings)</text><text fill="#000000" font-family="sans-serif" font-size="11" lengthAdjust="spacingAndGlyphs" textLength="68" x="12" y="273.9683">saveToFile()</text><!--link Transformation to DateTransformation--><path d="M393.63,462.8441 C380.39,481.4671 366.151,501.4951 354.374,518.0602 " fill="none" id="Transformation-DateTransformation" style="stroke: #A80036; stroke-width: 1.0; stroke-dasharray: 7.0,7.0;"/><polygon fill="none" points="388.116,458.5201,405.41,446.2761,399.526,466.6331,388.116,458.5201" style="stroke: #A80036; stroke-width: 1.0;"/><!--link Transformation to ValueRangeTransformation--><path d="M477.553,462.5551 C487.823,476.8661 498.7,492.0231 508.595,505.8117 " fill="none" id="Transformation-ValueRangeTransformation" style="stroke: #A80036; stroke-width: 1.0; stroke-dasharray: 7.0,7.0;"/><polygon fill="none" points="471.845,466.6061,465.871,446.2761,483.219,458.4441,471.845,466.6061" style="stroke: #A80036; stroke-width: 1.0;"/><!--link Target to CsvTarget--><path d="M702.421,146.5871 C712.071,169.7891 722.396,194.6151 730.149,213.2571 " fill="none" id="Target-CsvTarget" style="stroke: #A80036; stroke-width: 1.0; stroke-dasharray: 7.0,7.0;"/><polygon fill="none" points="695.935,149.2201,694.718,128.0661,708.862,143.8441,695.935,149.2201" style="stroke: #A80036; stroke-width: 1.0;"/><!--link Target to Field--><path d="M603.439,128.0661 C577.317,145.9361 547.477,166.3491 520.269,184.9631 " fill="none" id="Target-Field" style="stroke: #A80036; stroke-width: 1.0;"/><polygon fill="#A80036" points="515.925,187.9341,525.6115,186.1532,520.0515,185.1107,521.094,179.5507,515.925,187.9341" style="stroke: #A80036; stroke-width: 1.0;"/><!--link Source to Field--><path d="M255.821,121.5581 C284.369,140.8461 318.666,164.0181 349.61,184.9241 " fill="none" id="Source-Field" style="stroke: #A80036; stroke-width: 1.0;"/><polygon fill="#A80036" points="353.757,187.7261,348.5402,179.3724,349.6144,184.9263,344.0605,186.0005,353.757,187.7261" style="stroke: #A80036; stroke-width: 1.0;"/><!--link Field to Transformation--><path d="M435.5,300.3051 C435.5,318.0671 435.5,337.5651 435.5,354.6921 " fill="none" id="Field-Transformation" style="stroke: #A80036; stroke-width: 1.0;"/><polygon fill="#A80036" points="435.5,359.9271,439.5,350.9271,435.5,354.9271,431.5,350.9271,435.5,359.9271" style="stroke: #A80036; stroke-width: 1.0;"/><!--link Source to CsvSource--><path d="M168.277,140.1001 C158.948,162.5311 148.672,187.2391 140.53,206.8141 " fill="none" id="Source-CsvSource" style="stroke: #A80036; stroke-width: 1.0; stroke-dasharray: 7.0,7.0;"/><polygon fill="none" points="161.845,137.3371,175.988,121.5581,174.771,142.7131,161.845,137.3371" style="stroke: #A80036; stroke-width: 1.0;"/><!--
@startuml
title Classes - Csv Importer

interface Source {
  Field[] fields
  Field getFieldByPosition(position)
  Field getFieldByName(name)
}

interface Target {
  Field[] fields
  Target addFieldAtPosition(Field field, int position)
  Target addFieldAtPositionWithName(Field field, int position, String name)
  Target addFieldNextPositionWithName(Field field, String name)
}

interface Field {
  String name
  Integer position
  Source source
  Field transformField(transformation Transformation)
  Strinng getCurrentValue()
}

interface Transformation {
  Transformation previous
  String transform(String value)
  Transformation then(Transformation after)
}

class DateTransformation implements Transformation {
  String inputDateFormat
  String outputDateFormat
}

class ValueRangeTransformation implements Transformation {
  String decimalSeparator
  String thousandSeparator
  Number minValue
  Number maxValue
}

class CsvTarget implements Target {
    CsvTarget(CsvTargetSettings settings)
}

Target - -> Field
Source - -> Field
Field  - -> Transformation

class CsvSource implements Source {
    CsvSource(CsvSourceSettings settings)
    saveToFile()
}
@enduml

PlantUML version 1.2019.01(Sat Feb 09 15:32:04 UTC 2019)
(GPL source distribution)
Java Runtime: Java(TM) SE Runtime Environment
JVM: Java HotSpot(TM) 64-Bit Server VM
Java Version: 1.7.0_25-b15
Operating System: Linux
Default Encoding: UTF-8
Language: en
Country: US
--></g></svg>